<svg xmlns="http://www.w3.org/2000/svg" viewBox="0 0 252.14 19.72"><defs><style>.cls-1{fill:#231f20;}.cls-2{fill:#fff;}</style></defs><title>logoAsset 1</title><g id="Layer_2" data-name="Layer 2"><g id="Layer_1-2" data-name="Layer 1"><path class="cls-1" d="M13.43,12.33,15.25.26h3.84l-3.41,19.2H11.79L9.54,8.15,7.33,19.46H3.43L0,.26H3.86l1.81,12L7.92.26h3.26Z"/><path class="cls-1" d="M31.1,11.15h-6v5.09h7.15v3.22h-11V.26h11V3.49H25.06V8h6Z"/><path class="cls-1" d="M53.67,13.06a7.18,7.18,0,0,1-1.85,5A6.52,6.52,0,0,1,47,19.72a6,6,0,0,1-5-2.14,9.49,9.49,0,0,1-1.73-6.11V8.24a9.25,9.25,0,0,1,1.79-6.1,6.14,6.14,0,0,1,5-2.14,6.19,6.19,0,0,1,4.77,1.75,8,8,0,0,1,1.85,5H49.81A5.16,5.16,0,0,0,49.18,4a2.47,2.47,0,0,0-2.1-.77,2.35,2.35,0,0,0-2.2,1.09,7.6,7.6,0,0,0-.69,3.58v3.63a8.37,8.37,0,0,0,.64,3.93A2.35,2.35,0,0,0,47,16.51a2.54,2.54,0,0,0,2.11-.75,4.9,4.9,0,0,0,.66-2.7Z"/><path class="cls-1" d="M65.22,15.53H59.93l-1,3.93H54.8l6-19.2h3.55l6,19.2H66.25ZM60.78,12.3h3.59L62.57,5.46Z"/><path class="cls-1" d="M78,12.45H76.07v7H72.19V.26h6.18a6.28,6.28,0,0,1,4.5,1.51,5.64,5.64,0,0,1,1.59,4.29q0,3.82-2.78,5.35L85,19.27v.18H80.88ZM76.07,9.22h2.2A2,2,0,0,0,80,8.44a3.35,3.35,0,0,0,.58-2.06q0-2.89-2.25-2.89H76.07Z"/><path class="cls-1" d="M97,11.15H91v5.09h7.15v3.22h-11V.26h11V3.49H91V8h6Z"/><path class="cls-1" d="M115.77,15.53h-5.29l-1,3.93h-4.1l6-19.2h3.55l6,19.2h-4.14Zm-4.44-3.23h3.59l-1.79-6.84Z"/><path class="cls-1" d="M135.46,13.06a7.18,7.18,0,0,1-1.85,5,6.52,6.52,0,0,1-4.8,1.69,6,6,0,0,1-5-2.14,9.49,9.49,0,0,1-1.73-6.11V8.24a9.25,9.25,0,0,1,1.79-6.1,7.09,7.09,0,0,1,9.75-.39,8,8,0,0,1,1.85,5H131.6A5.16,5.16,0,0,0,131,4a2.47,2.47,0,0,0-2.1-.77,2.35,2.35,0,0,0-2.2,1.09A7.6,7.6,0,0,0,126,7.88v3.63a8.37,8.37,0,0,0,.64,3.93,2.35,2.35,0,0,0,2.2,1.07,2.54,2.54,0,0,0,2.11-.75,4.9,4.9,0,0,0,.66-2.7Z"/><path class="cls-1" d="M149.9,3.49h-4.75v16h-3.89v-16H136.6V.26h13.3Z"/><path class="cls-2" d="M174,14.28a18.84,18.84,0,0,1-.4,2.17,6,6,0,0,1-.57,1.94q-2.07,1.25-6.77,1.25a8.46,8.46,0,0,1-6.36-2.75,9.15,9.15,0,0,1-2.62-6.54A9.74,9.74,0,0,1,160,3.44a8.69,8.69,0,0,1,6.6-2.87,35.09,35.09,0,0,1,6.88.71q-.06,3.8-.06,4.08t-.59.42c-.19,0-.31,0-.37-.14q-.08-.37-.21-.75a4.46,4.46,0,0,0-.54-1,4.38,4.38,0,0,0-1-1A5.35,5.35,0,0,0,169,2.08a8.16,8.16,0,0,0-2.39-.33,5.87,5.87,0,0,0-4.73,2.45,8.65,8.65,0,0,0-2,5.54,11,11,0,0,0,.79,4.22,7.37,7.37,0,0,0,2.51,3.19,6.67,6.67,0,0,0,4.06,1.26,5.63,5.63,0,0,0,4.33-1.64,3.84,3.84,0,0,0,.69-1.12q.3-.69.45-1.16T173,14a1.85,1.85,0,0,1,.41.06l.38.11Z"/><path class="cls-2" d="M181.79,7.08a5.9,5.9,0,0,1,4.36,1.84A6.07,6.07,0,0,1,188,13.34a6.23,6.23,0,0,1-1.77,4.46,5.77,5.77,0,0,1-4.35,1.85,5.91,5.91,0,0,1-4.39-1.85,6.15,6.15,0,0,1-1.81-4.46A6.14,6.14,0,0,1,177.4,8.9,5.86,5.86,0,0,1,181.79,7.08Zm-.31,1.1A2.87,2.87,0,0,0,179,9.56a5.76,5.76,0,0,0-.95,3.36,6.58,6.58,0,0,0,1.2,4,3.45,3.45,0,0,0,2.82,1.66,2.88,2.88,0,0,0,2.46-1.42,5.9,5.9,0,0,0,1-3.4,6.37,6.37,0,0,0-1.22-3.92A3.5,3.5,0,0,0,181.48,8.19Z"/><path class="cls-2" d="M198.16,7.05a2.91,2.91,0,0,1,2.78,1.42,9.9,9.9,0,0,1,.79,4.59v2.58a10.62,10.62,0,0,0,.23,2.52c0,.13.28.26.74.38a4.3,4.3,0,0,0,1,.18c.06,0,.09.11.11.34a1.17,1.17,0,0,1,0,.48l-3-.14-3,.14a.69.69,0,0,1-.11-.47c0-.24,0-.35.11-.35a3.53,3.53,0,0,0,.95-.18c.41-.12.63-.25.67-.38a8.64,8.64,0,0,0,.2-2V13.34a6.69,6.69,0,0,0-.68-3.6,2.52,2.52,0,0,0-2.21-1,2.76,2.76,0,0,0-1.74.67c-.56.44-.84.85-.84,1.2v5a10.62,10.62,0,0,0,.23,2.52c0,.13.28.26.74.38a4.3,4.3,0,0,0,1,.18c.06,0,.09.11.11.34a1.17,1.17,0,0,1,0,.48l-3-.14-3.09.14a.69.69,0,0,1-.11-.47c0-.24,0-.35.11-.35a4.14,4.14,0,0,0,1-.18c.44-.12.68-.25.72-.38a8.64,8.64,0,0,0,.2-2V10.82a2.25,2.25,0,0,0-.4-1.53,1.44,1.44,0,0,0-.69-.47,2.39,2.39,0,0,0-.68-.13c-.18,0-.27,0-.27-.06q0-.68.17-.71a33.17,33.17,0,0,0,3.91-.74l.14,0c.07,0,.12.08.14.24a1,1,0,0,1,0,.35,9.47,9.47,0,0,0-.11,1.13c0,.08,0,.11.06.11s0,0,.09-.06A7.2,7.2,0,0,1,196,7.66,4.48,4.48,0,0,1,198.16,7.05Z"/><path class="cls-2" d="M213.53,7.05a2.91,2.91,0,0,1,2.78,1.42,9.89,9.89,0,0,1,.79,4.59v2.58a10.67,10.67,0,0,0,.23,2.52q.06.2.74.38a4.31,4.31,0,0,0,1,.18c.06,0,.09.11.11.34a1.17,1.17,0,0,1,0,.48l-3-.14-3,.14a.69.69,0,0,1-.11-.47c0-.24,0-.35.11-.35a3.52,3.52,0,0,0,.95-.18q.61-.18.67-.38a8.58,8.58,0,0,0,.2-2V13.34a6.69,6.69,0,0,0-.68-3.6,2.52,2.52,0,0,0-2.21-1,2.76,2.76,0,0,0-1.74.67q-.84.67-.84,1.2v5a10.67,10.67,0,0,0,.23,2.52q.06.2.74.38a4.31,4.31,0,0,0,1,.18c.06,0,.09.11.11.34a1.17,1.17,0,0,1,0,.48l-3-.14-3.09.14a.69.69,0,0,1-.11-.47c0-.24,0-.35.11-.35a4.13,4.13,0,0,0,1-.18c.44-.12.68-.25.72-.38a8.58,8.58,0,0,0,.2-2V10.82a2.25,2.25,0,0,0-.4-1.53,1.44,1.44,0,0,0-.69-.47,2.39,2.39,0,0,0-.68-.13c-.18,0-.27,0-.27-.06q0-.68.17-.71a33.26,33.26,0,0,0,3.91-.74l.14,0c.08,0,.12.08.14.24a1.1,1.1,0,0,1,0,.35,9.27,9.27,0,0,0-.11,1.13c0,.08,0,.11.06.11s0,0,.08-.06a7.24,7.24,0,0,1,1.77-1.29A4.48,4.48,0,0,1,213.53,7.05Z"/><path class="cls-2" d="M226.45,7.11a5.07,5.07,0,0,1,2.29.5,3.85,3.85,0,0,1,1.52,1.27,5.84,5.84,0,0,1,.76,1.59,5.56,5.56,0,0,1,.24,1.6q0,.57-.17.69a1.16,1.16,0,0,1-.65.13H223.3c-.15,0-.23,0-.23.14a5.51,5.51,0,0,0,1.08,3.29,3.6,3.6,0,0,0,3.12,1.5,5.47,5.47,0,0,0,1.13-.11,5.36,5.36,0,0,0,.92-.27,5.22,5.22,0,0,0,.65-.31c.18-.1.33-.2.47-.3l.2-.14c.11,0,.17.12.17.37a1,1,0,0,1-.17.51A5.2,5.2,0,0,1,229,19a4.73,4.73,0,0,1-2.41.64,5.38,5.38,0,0,1-4-1.77,6,6,0,0,1-1.68-4.32,6.65,6.65,0,0,1,1.6-4.7A5.23,5.23,0,0,1,226.45,7.11Zm-.28,1a2.49,2.49,0,0,0-2.25,1.26,4.26,4.26,0,0,0-.78,2.08q0,.2.17.2h5.52c.09,0,.14-.09.14-.28a4,4,0,0,0-.76-2.08A2.33,2.33,0,0,0,226.16,8.16Z"/><path class="cls-2" d="M238.51,7.11q3.12,0,4.3,1.44,0,1.9-1,1.9a1.12,1.12,0,0,1-.74-.21,4.23,4.23,0,0,1-.65-.78,2.52,2.52,0,0,0-2.1-1.3,2.76,2.76,0,0,0-2.11,1.1,4.93,4.93,0,0,0-.95,3.29,6.13,6.13,0,0,0,1.12,3.77,3.65,3.65,0,0,0,3.1,1.5,5.47,5.47,0,0,0,1.13-.11,5.36,5.36,0,0,0,.92-.27,5.22,5.22,0,0,0,.65-.31c.18-.1.33-.2.47-.3l.2-.14c.11,0,.17.12.17.37a1,1,0,0,1-.17.51A5.2,5.2,0,0,1,241.15,19a4.73,4.73,0,0,1-2.41.64,5.38,5.38,0,0,1-4-1.77A6,6,0,0,1,233,13.54,7.38,7.38,0,0,1,234.43,9,4.77,4.77,0,0,1,238.51,7.11Z"/><path class="cls-2" d="M245.7,8.87h-1.64q-.14,0-.14-.59a.38.38,0,0,1,0-.2,5.46,5.46,0,0,0,1.78-1.5,7.45,7.45,0,0,0,.61-.84q.3-.47.5-.81a2.66,2.66,0,0,0,.2-.37q.85,0,.85.14v2.8h3.82c.15,0,.23.08.23.25a2.42,2.42,0,0,1-.28,1.08h-3.77v6.94a2.69,2.69,0,0,0,.58,1.81,1.9,1.9,0,0,0,1.51.68,3.44,3.44,0,0,0,1.76-.54q.08-.06.25.24c.11.2.16.31.14.33a4.63,4.63,0,0,1-1.3.89,4,4,0,0,1-1.81.44,3.23,3.23,0,0,1-2.36-.93,3.57,3.57,0,0,1-.95-2.66Z"/></g></g></svg>